<mxfile host="app.diagrams.net" modified="2021-10-11T10:53:25.314Z" agent="5.0 (Windows NT 10.0; Win64; x64) AppleWebKit/537.36 (KHTML, like Gecko) Chrome/94.0.4606.81 Safari/537.36" etag="t7dUH9YPCkJpoesAKnJH" version="15.5.0" type="github">
  <diagram id="JLig5AdGTN-fjWo34uX7" name="Page-1">
    <mxGraphModel dx="1108" dy="460" grid="1" gridSize="10" guides="1" tooltips="1" connect="1" arrows="1" fold="1" page="1" pageScale="1" pageWidth="1100" pageHeight="850" math="0" shadow="0">
      <root>
        <mxCell id="0" />
        <mxCell id="1" parent="0" />
        <mxCell id="jhopiyqqvoB_ykDFVH99-1" style="edgeStyle=orthogonalEdgeStyle;rounded=0;orthogonalLoop=1;jettySize=auto;html=1;entryX=0.5;entryY=0;entryDx=0;entryDy=0;" edge="1" parent="1" source="jhopiyqqvoB_ykDFVH99-2" target="jhopiyqqvoB_ykDFVH99-5">
          <mxGeometry relative="1" as="geometry" />
        </mxCell>
        <mxCell id="jhopiyqqvoB_ykDFVH99-2" value="Frontend" style="rounded=0;whiteSpace=wrap;html=1;" vertex="1" parent="1">
          <mxGeometry x="410" y="30" width="230" height="60" as="geometry" />
        </mxCell>
        <mxCell id="jhopiyqqvoB_ykDFVH99-3" style="edgeStyle=orthogonalEdgeStyle;rounded=0;orthogonalLoop=1;jettySize=auto;html=1;" edge="1" parent="1" source="jhopiyqqvoB_ykDFVH99-5">
          <mxGeometry relative="1" as="geometry">
            <mxPoint x="525" y="250" as="targetPoint" />
          </mxGeometry>
        </mxCell>
        <mxCell id="jhopiyqqvoB_ykDFVH99-4" style="edgeStyle=orthogonalEdgeStyle;rounded=0;orthogonalLoop=1;jettySize=auto;html=1;" edge="1" parent="1" source="jhopiyqqvoB_ykDFVH99-5">
          <mxGeometry relative="1" as="geometry">
            <mxPoint x="525" y="90" as="targetPoint" />
          </mxGeometry>
        </mxCell>
        <mxCell id="jhopiyqqvoB_ykDFVH99-5" value="Load Balancer" style="rounded=0;whiteSpace=wrap;html=1;" vertex="1" parent="1">
          <mxGeometry x="410" y="140" width="230" height="30" as="geometry" />
        </mxCell>
        <mxCell id="jhopiyqqvoB_ykDFVH99-6" style="edgeStyle=orthogonalEdgeStyle;rounded=0;orthogonalLoop=1;jettySize=auto;html=1;entryX=0;entryY=0.5;entryDx=0;entryDy=0;" edge="1" parent="1" source="jhopiyqqvoB_ykDFVH99-9" target="jhopiyqqvoB_ykDFVH99-11">
          <mxGeometry relative="1" as="geometry" />
        </mxCell>
        <mxCell id="jhopiyqqvoB_ykDFVH99-7" style="edgeStyle=orthogonalEdgeStyle;rounded=0;orthogonalLoop=1;jettySize=auto;html=1;entryX=0.5;entryY=0;entryDx=0;entryDy=0;" edge="1" parent="1" source="jhopiyqqvoB_ykDFVH99-9" target="jhopiyqqvoB_ykDFVH99-13">
          <mxGeometry relative="1" as="geometry" />
        </mxCell>
        <mxCell id="jhopiyqqvoB_ykDFVH99-8" style="edgeStyle=orthogonalEdgeStyle;rounded=0;orthogonalLoop=1;jettySize=auto;html=1;entryX=0.474;entryY=1;entryDx=0;entryDy=0;entryPerimeter=0;" edge="1" parent="1" source="jhopiyqqvoB_ykDFVH99-9" target="jhopiyqqvoB_ykDFVH99-5">
          <mxGeometry relative="1" as="geometry" />
        </mxCell>
        <mxCell id="jhopiyqqvoB_ykDFVH99-9" value="Backend" style="rounded=0;whiteSpace=wrap;html=1;" vertex="1" parent="1">
          <mxGeometry x="460" y="250" width="120" height="60" as="geometry" />
        </mxCell>
        <mxCell id="jhopiyqqvoB_ykDFVH99-10" style="edgeStyle=orthogonalEdgeStyle;rounded=0;orthogonalLoop=1;jettySize=auto;html=1;" edge="1" parent="1" source="jhopiyqqvoB_ykDFVH99-11">
          <mxGeometry relative="1" as="geometry">
            <mxPoint x="580" y="280" as="targetPoint" />
          </mxGeometry>
        </mxCell>
        <mxCell id="jhopiyqqvoB_ykDFVH99-11" value="API to connect bank" style="rounded=0;whiteSpace=wrap;html=1;" vertex="1" parent="1">
          <mxGeometry x="660" y="250" width="120" height="60" as="geometry" />
        </mxCell>
        <mxCell id="jhopiyqqvoB_ykDFVH99-12" style="edgeStyle=orthogonalEdgeStyle;rounded=0;orthogonalLoop=1;jettySize=auto;html=1;" edge="1" parent="1" source="jhopiyqqvoB_ykDFVH99-13">
          <mxGeometry relative="1" as="geometry">
            <mxPoint x="520" y="310" as="targetPoint" />
          </mxGeometry>
        </mxCell>
        <mxCell id="jhopiyqqvoB_ykDFVH99-13" value="DB" style="rounded=0;whiteSpace=wrap;html=1;" vertex="1" parent="1">
          <mxGeometry x="460" y="350" width="120" height="60" as="geometry" />
        </mxCell>
      </root>
    </mxGraphModel>
  </diagram>
</mxfile>
